<svg width="25" height="29" viewBox="0 0 25 29" fill="none" xmlns="http://www.w3.org/2000/svg">
<path d="M23.3683 0.300049H1.63095C1.07561 0.300049 0.599609 0.787005 0.599609 1.35512V12.6769C0.599609 16.4508 1.90861 20.1435 4.32827 23.0247C6.54961 25.6624 8.92961 28.3 12.4996 28.3C16.0696 28.3 18.2909 25.7841 20.5123 23.2276C23.0113 20.3058 24.3996 16.5319 24.3996 12.6363V1.35512C24.3996 0.787005 23.9633 0.300049 23.3683 0.300049ZM20.8296 12.6769C20.8296 15.6798 19.7586 18.6015 17.8149 20.8334C15.5936 23.4305 14.3243 24.6479 12.4996 24.6479C10.7146 24.6479 9.32628 23.3493 7.02561 20.6305C5.20095 18.4798 4.16961 15.6392 4.16961 12.6769V4.92614C4.16961 4.3986 4.56627 3.9928 5.08194 3.9928H19.8776C20.3933 3.9928 20.7899 4.43918 20.7899 4.92614V12.6769H20.8296ZM17.9736 6.387C18.2513 6.387 18.4496 6.63048 18.4496 6.87396V12.6363C18.4496 15.0305 17.5769 17.3841 16.0299 19.1696C14.0466 21.4827 13.2533 22.1725 12.4996 22.1725C11.7856 22.1725 10.7939 21.3203 8.81061 19.0073C7.34295 17.2624 6.54961 15.0305 6.54961 12.6363V6.91454C6.54961 6.63048 6.78761 6.42758 7.02561 6.42758H17.9736V6.387Z" fill="white"/>
</svg>
