<svg width="27" height="28" viewBox="0 0 27 28" fill="none" xmlns="http://www.w3.org/2000/svg">
<path d="M26.5596 8.25559L13.0028 20.9518L10.3326 18.2608L16.8713 11.6712L17.3506 10.2221L15.9127 10.7051L9.37399 17.2948L6.70372 14.6037L19.3019 0.941456L26.7992 0.699951L26.5596 8.25559ZM13.2767 23.3669L4.10192 14.1207C3.62264 13.6377 2.86949 13.6377 2.39021 14.1207L1.70553 14.8107C1.22625 15.2937 1.22625 16.0527 1.70553 16.5357L4.95778 19.8133L0.61003 24.1949C0.0622818 24.7469 0.0622818 25.6784 0.61003 26.2304L1.26048 26.8859C1.80823 27.438 2.73255 27.438 3.2803 26.8859L7.59381 22.5389L10.8461 25.8164C11.3253 26.2994 12.0785 26.2994 12.5578 25.8164L13.2425 25.1264C13.756 24.6089 13.756 23.8499 13.2767 23.3669Z" fill="white"/>
</svg>
